<?xml version="1.0" encoding="UTF-8"?>
<svg id="Layer_1" data-name="Layer 1" xmlns="http://www.w3.org/2000/svg" viewBox="0 0 423.41 32.68">
  <defs>
    <style>
      .cls-1 {
        fill: #0f5b63;
      }
    </style>
  </defs>
  <path class="cls-1" d="M203.42,20.7h-.02c-.06,0-.12-.02-.16-.07-.04-.04-.06-.1-.06-.16,0,0,0-.05,0-.11-.05-.33-.28-1.26-1.34-2.19-1.23-1.08-3.85-2.36-9.35-2.36-.12,0-.22-.1-.22-.22s.1-.22.22-.22c5.5,0,8.12-1.3,9.35-2.39,1.06-.94,1.29-1.89,1.34-2.22,0-.07,0-.11,0-.12,0-.06.02-.12.06-.16.04-.04.1-.07.16-.07h.02c.06,0,.12.02.16.07s.06.1.06.16c0,0,0,.05,0,.12.05.33.28,1.28,1.34,2.22,1.23,1.09,3.85,2.39,9.35,2.39.12,0,.22.1.22.22s-.1.22-.22.22c-5.5,0-8.12,1.28-9.35,2.36-1.06.93-1.29,1.86-1.34,2.19,0,.07,0,.11,0,.11,0,.06-.02.12-.06.16-.04.04-.1.07-.16.07ZM196.2,15.59c2.66.35,4.66,1.11,5.98,2.28.67.6,1.04,1.2,1.24,1.67.2-.47.56-1.07,1.24-1.67,1.31-1.17,3.32-1.93,5.98-2.28-2.66-.35-4.67-1.13-5.98-2.31-.67-.61-1.04-1.21-1.23-1.69-.2.48-.56,1.09-1.23,1.69-1.31,1.18-3.32,1.95-5.98,2.31Z"/>
  <g>
    <path class="cls-1" d="M193.45,15.63c0,.53-.43.96-.96.96s-.96-.43-.96-.96.43-.96.96-.96.96.43.96.96Z"/>
    <rect class="cls-1" x="24.74" y="15.41" width="167.76" height=".44"/>
    <path class="cls-1" d="M25.75,15.64c0,.69-.56,1.25-1.25,1.25s-1.25-.56-1.25-1.25.56-1.25,1.25-1.25,1.25.56,1.25,1.25Z"/>
    <path class="cls-1" d="M183.12,15.64c0,.69-.56,1.25-1.25,1.25s-1.25-.56-1.25-1.25.56-1.25,1.25-1.25,1.25.56,1.25,1.25Z"/>
  </g>
  <g>
    <path class="cls-1" d="M213.37,15.64c0-.53.43-.96.96-.96s.96.43.96.96-.43.96-.96.96-.96-.43-.96-.96Z"/>
    <rect class="cls-1" x="214.33" y="15.41" width="179.19" height=".44"/>
    <path class="cls-1" d="M392.51,15.63c0-.69.56-1.25,1.25-1.25s1.25.56,1.25,1.25-.56,1.25-1.25,1.25-1.25-.56-1.25-1.25Z"/>
    <path class="cls-1" d="M223.7,15.63c0-.69.56-1.25,1.25-1.25s1.25.56,1.25,1.25-.56,1.25-1.25,1.25-1.25-.56-1.25-1.25Z"/>
  </g>
</svg>