<?xml version="1.0" encoding="UTF-8"?>
<svg id="Layer_1" data-name="Layer 1" xmlns="http://www.w3.org/2000/svg" viewBox="0 0 16.6 2.52">
  <defs>
    <style>
      .cls-1 {
        fill: #0f5b63;
      }
    </style>
  </defs>
  <g>
    <g>
      <path class="cls-1" d="M11.26,1.23h4.36s.03.01.03.03-.01.03-.03.03h-4.36s-.03-.01-.03-.03.01-.03.03-.03Z"/>
      <g>
        <g>
          <path class="cls-1" d="M15.74,1.26s.03-.08.08-.08.08.03.08.08-.03.08-.08.08-.08-.03-.08-.08Z"/>
          <path class="cls-1" d="M15.95,1.26c0-.06.05-.11.11-.11s.11.05.11.11-.05.11-.11.11-.11-.05-.11-.11Z"/>
        </g>
        <g>
          <path class="cls-1" d="M11,1.26s.03-.08.08-.08.08.03.08.08-.03.08-.08.08-.08-.03-.08-.08Z"/>
          <path class="cls-1" d="M10.73,1.26c0-.06.05-.11.11-.11s.11.05.11.11-.05.11-.11.11-.11-.05-.11-.11Z"/>
        </g>
      </g>
    </g>
    <g>
      <path class="cls-1" d="M1.1,1.23h4.36s.03.01.03.03-.01.03-.03.03H1.1s-.03-.01-.03-.03.01-.03.03-.03Z"/>
      <g>
        <g>
          <path class="cls-1" d="M5.58,1.26s.03-.08.08-.08.08.03.08.08-.03.08-.08.08-.08-.03-.08-.08Z"/>
          <path class="cls-1" d="M5.78,1.26c0-.06.05-.11.11-.11s.11.05.11.11-.05.11-.11.11-.11-.05-.11-.11Z"/>
        </g>
        <g>
          <path class="cls-1" d="M.83,1.26s.03-.08.08-.08.08.03.08.08-.03.08-.08.08-.08-.03-.08-.08Z"/>
          <path class="cls-1" d="M.57,1.26c0-.06.05-.11.11-.11s.11.05.11.11-.05.11-.11.11-.11-.05-.11-.11Z"/>
        </g>
      </g>
    </g>
  </g>
  <g>
    <path class="cls-1" d="M8.28.76c-.05.08-.1.17-.16.26-.09.05-.18.11-.26.16-.05.03-.1.06-.15.08.05.02.1.05.15.08.08.05.17.1.26.16.05.09.11.18.16.26.03.05.06.1.08.15.02-.05.05-.1.08-.15.05-.08.1-.17.16-.26.09-.05.18-.11.26-.16.05-.03.1-.06.15-.08-.05-.02-.1-.05-.15-.08-.08-.05-.17-.1-.26-.16-.05-.09-.11-.18-.16-.26-.03-.05-.06-.1-.08-.15-.02.05-.05.1-.08.15ZM8.74,1.26c-.08.04-.16.09-.25.13-.04.08-.09.16-.13.25-.04-.08-.09-.16-.13-.25-.08-.04-.16-.09-.25-.13.08-.04.16-.09.25-.13.04-.08.09-.16.13-.25.04.08.09.16.13.25.08.04.16.09.25.13Z"/>
    <path class="cls-1" d="M6.15,1.26s-.05-.06-.06-.1c-.01-.06,0-.1.01-.14.04-.07.09-.08.08-.08,0,0-.04.02-.06.09,0,.03,0,.07.01.12.02.04.06.07.11.09.05.01.11.01.17-.01.06-.02.11-.06.17-.11.05-.05.11-.11.17-.17.06-.06.14-.12.24-.15.1-.03.21-.02.29.04.08.06.12.15.11.23,0,.04-.02.08-.04.11s-.05.05-.08.06c-.06.03-.12.02-.16,0-.09-.03-.12-.09-.13-.13-.01-.04-.01-.05-.01-.05,0,0,0,.02.03.04.02.02.07.06.13.07.03,0,.06,0,.09-.03.03-.02.05-.05.05-.09,0-.04-.03-.08-.07-.11-.04-.02-.1-.03-.17-.01-.14.04-.24.17-.37.27-.02.02-.05.04-.08.05.03.02.05.04.08.05.13.1.24.24.37.27.07.02.13.01.17-.01.04-.03.07-.07.07-.11,0-.04-.02-.07-.05-.09-.03-.02-.06-.03-.09-.03-.06,0-.11.04-.13.07-.02.02-.03.04-.03.04,0,0,0-.02.01-.05.01-.03.05-.09.13-.13.04-.01.1-.02.16,0,.03.01.06.03.08.06.02.03.04.07.04.11,0,.09-.03.17-.11.23-.08.06-.19.07-.29.04-.1-.03-.18-.09-.24-.15-.06-.06-.12-.12-.17-.17-.05-.05-.11-.09-.17-.11-.06-.02-.12-.03-.17-.01-.05.01-.09.05-.11.09-.02.04-.02.08-.01.12.02.07.06.08.06.09,0,0-.05,0-.08-.08-.02-.03-.03-.08-.01-.14,0-.03.03-.07.06-.1Z"/>
    <path class="cls-1" d="M10.58,1.26s.05.06.06.1c.01.06,0,.1-.01.14-.04.07-.09.08-.08.08,0,0,.04-.02.06-.09,0-.03,0-.07-.01-.12-.02-.04-.06-.07-.11-.09-.05-.01-.11-.01-.17.01-.06.02-.11.06-.17.11-.05.05-.11.11-.17.17-.06.06-.14.12-.24.15-.1.03-.21.02-.29-.04-.08-.06-.12-.15-.11-.23,0-.04.02-.08.04-.11.02-.03.05-.05.08-.06.06-.03.12-.02.16,0,.09.03.12.09.13.13.01.04.01.05.01.05,0,0,0-.02-.03-.04-.02-.02-.07-.06-.13-.07-.03,0-.07,0-.09.03-.03.02-.05.05-.05.09,0,.04.03.08.07.11.04.02.1.03.17.01.14-.04.24-.17.37-.27.02-.02.05-.04.08-.05-.03-.02-.05-.04-.08-.05-.13-.1-.24-.24-.37-.27-.07-.02-.13-.01-.17.01-.04.03-.07.07-.07.11,0,.04.02.07.05.09.03.02.06.03.09.03.06,0,.11-.04.13-.07.02-.02.03-.04.03-.04,0,0,0,.02-.01.05-.01.03-.05.09-.13.13-.04.01-.1.02-.16,0-.03-.01-.06-.03-.08-.06-.02-.03-.04-.07-.04-.11,0-.09.03-.17.11-.23.08-.06.19-.07.29-.04.1.03.18.09.24.15.06.06.12.12.17.17.05.05.11.09.17.11.06.02.12.02.17.01.05-.01.09-.05.11-.09.02-.04.02-.08.01-.12-.02-.07-.06-.08-.06-.09,0,0,.05,0,.08.08.02.03.03.08.01.14,0,.03-.03.07-.06.1Z"/>
    <path class="cls-1" d="M7.41,1.26s.07-.04.1-.07c.07-.07.13-.15.16-.17.06-.06.16-.11.2-.07.04.04,0,.14-.07.21-.03.03-.1.07-.19.11.09.03.17.08.19.11.07.07.11.17.07.21-.04.04-.14-.01-.2-.07-.03-.03-.08-.11-.16-.17-.03-.03-.06-.05-.1-.07Z"/>
    <path class="cls-1" d="M9.32,1.26s-.07.04-.1.07c-.07.07-.13.15-.16.17-.06.06-.16.11-.2.07-.04-.04,0-.14.07-.21.03-.03.1-.07.19-.11-.09-.03-.17-.08-.19-.11-.07-.07-.11-.17-.07-.21.04-.04.14.01.2.07.03.03.08.11.16.17.03.03.06.05.1.07Z"/>
    <path class="cls-1" d="M8.63.99c-.03-.06-.07-.16-.1-.19.03.04.1.1.14.15.04.04.11.11.15.14-.04-.03-.14-.07-.19-.1Z"/>
    <path class="cls-1" d="M8.1.99c-.06.03-.16.07-.19.1.04-.03.1-.1.15-.14.04-.04.11-.11.14-.15-.03.04-.07.14-.1.19Z"/>
    <path class="cls-1" d="M8.1,1.53c.03.06.07.16.1.19-.03-.04-.1-.1-.14-.15-.04-.04-.11-.11-.15-.14.04.03.14.07.19.1Z"/>
    <path class="cls-1" d="M8.63,1.53c.06-.03.16-.07.19-.1-.04.03-.1.1-.15.14-.04.04-.11.11-.14.15.03-.04.07-.14.1-.19Z"/>
    <path class="cls-1" d="M9.19,1.58s-.03-.05-.01-.1c0-.02.04-.06.07-.1.04-.04.08-.06.1-.08-.03.02-.06.06-.07.1-.02.04-.02.08-.03.1-.01.03-.03.07-.06.07Z"/>
    <path class="cls-1" d="M7.54.94s.03.05.01.1c0,.02-.04.06-.07.1-.04.04-.08.06-.1.08.03-.02.06-.06.07-.1.02-.04.02-.08.03-.1.01-.03.04-.07.06-.07Z"/>
    <path class="cls-1" d="M9.19.94s-.03.05-.01.1c0,.02.04.06.07.1.04.04.08.06.1.08-.03-.02-.06-.06-.07-.1-.02-.04-.02-.08-.03-.1-.01-.03-.03-.07-.06-.07Z"/>
    <path class="cls-1" d="M7.54,1.58s.03-.05.01-.1c0-.02-.04-.06-.07-.1-.04-.04-.08-.06-.1-.08.03.02.06.06.07.1.02.04.02.08.03.1.01.03.04.07.06.07Z"/>
  </g>
</svg>