<?xml version="1.0" encoding="UTF-8"?>
<svg id="Layer_1" data-name="Layer 1" xmlns="http://www.w3.org/2000/svg" viewBox="0 0 131.74 204.34">
  <defs>
    <style>
      .cls-1 {
        fill: #0f5b63;
      }
    </style>
  </defs>
  <g>
    <path class="cls-1" d="M36.37,141.67v-.02c0-.06.02-.12.07-.16s.1-.06.16-.06c0,0,.05,0,.11,0,.33-.05,1.26-.28,2.19-1.34,1.08-1.23,2.36-3.85,2.36-9.35,0-.12.1-.22.22-.22s.22.1.22.22c0,5.5,1.3,8.12,2.39,9.35.94,1.06,1.89,1.29,2.22,1.34.07,0,.11,0,.12,0,.06,0,.12.02.16.06.04.04.07.1.07.16v.02c0,.06-.02.12-.07.16-.04.04-.1.06-.16.06,0,0-.05,0-.12,0-.33.05-1.28.28-2.22,1.34-1.09,1.23-2.39,3.85-2.39,9.35,0,.12-.1.22-.22.22s-.22-.1-.22-.22c0-5.5-1.28-8.12-2.36-9.35-.93-1.06-1.86-1.29-2.19-1.34-.07,0-.11,0-.11,0-.06,0-.12-.02-.16-.06s-.07-.1-.07-.16ZM41.48,134.44c-.35,2.66-1.11,4.66-2.28,5.98-.6.67-1.2,1.04-1.67,1.24.47.2,1.07.56,1.67,1.24,1.17,1.31,1.93,3.32,2.28,5.98.35-2.66,1.13-4.67,2.31-5.98.61-.67,1.21-1.04,1.69-1.23-.48-.2-1.09-.56-1.69-1.23-1.18-1.31-1.95-3.32-2.31-5.98Z"/>
    <g>
      <path class="cls-1" d="M41.43,131.7c-.53,0-.96-.43-.96-.96s.43-.96.96-.96.96.43.96.96-.43.96-.96.96Z"/>
      <rect class="cls-1" x="41.21" y="92.24" width=".44" height="38.49"/>
      <path class="cls-1" d="M41.43,93.25c-.69,0-1.25-.56-1.25-1.25s.56-1.25,1.25-1.25,1.25.56,1.25,1.25-.56,1.25-1.25,1.25Z"/>
      <path class="cls-1" d="M41.43,121.37c-.69,0-1.25-.56-1.25-1.25s.56-1.25,1.25-1.25,1.25.56,1.25,1.25-.56,1.25-1.25,1.25Z"/>
    </g>
    <g>
      <path class="cls-1" d="M41.43,151.61c.53,0,.96.43.96.96s-.43.96-.96.96-.96-.43-.96-.96.43-.96.96-.96Z"/>
      <rect class="cls-1" x="41.21" y="152.58" width=".44" height="38.49"/>
      <path class="cls-1" d="M41.43,190.06c.69,0,1.25.56,1.25,1.25s-.56,1.25-1.25,1.25-1.25-.56-1.25-1.25.56-1.25,1.25-1.25Z"/>
      <path class="cls-1" d="M41.43,161.95c.69,0,1.25.56,1.25,1.25s-.56,1.25-1.25,1.25-1.25-.56-1.25-1.25.56-1.25,1.25-1.25Z"/>
    </g>
  </g>
  <path class="cls-1" d="M44.42,72.61s-.14-.03-.41-.1c-.14-.03-.31-.05-.5-.08-.1-.02-.21-.02-.32-.03-.11,0-.23-.02-.36-.01-.51,0-1.13.05-1.81.22-.17.04-.34.1-.52.15-.18.06-.36.12-.54.19-.36.15-.74.32-1.11.54-.09.05-.19.11-.28.16-.09.06-.18.12-.28.18-.19.12-.37.26-.55.39-.09.07-.18.15-.27.22-.09.08-.18.15-.27.23-.09.08-.17.16-.26.25l-.02.02h0s0,0,0,0l-.03.04-.06.07-.13.14-.13.14s-.09.09-.12.14c-.07.09-.14.19-.21.29-.03.05-.07.09-.11.14l-.09.16c-.06.11-.13.21-.19.32-.05.11-.11.23-.16.34l-.08.17c-.03.06-.04.12-.07.18-.04.12-.09.24-.13.36-.04.12-.06.25-.1.37l-.05.19c-.01.06-.02.13-.03.19-.02.13-.04.26-.06.39,0,.13-.02.26-.02.39,0,.07-.01.13,0,.2v.2c0,.53.11,1.07.26,1.58l.12.39c.05.13.11.25.16.37l.08.19.1.18c.07.12.13.24.2.36.16.22.3.46.49.66l.13.16.07.08.02.02s0,0,0,0h.01s.04.05.04.05l.32.3.31.23c.1.08.23.14.34.22.11.08.24.12.36.19.12.07.25.11.37.16.5.19,1.04.29,1.57.31,1.07.03,2.11-.35,2.93-.96.1-.08.2-.16.29-.25l.06-.05.07-.07.14-.15s.05-.05.07-.07l.05-.07.11-.14s.07-.09.1-.15l.1-.15c.25-.41.41-.87.49-1.33.16-.92-.06-1.83-.48-2.54-.06-.09-.11-.17-.17-.25-.05-.09-.12-.16-.18-.24-.03-.04-.06-.08-.09-.11-.03-.03-.07-.07-.1-.1l-.11-.11s-.07-.06-.1-.09c-.27-.23-.6-.41-.91-.52-.32-.11-.63-.16-.92-.18-.29-.02-.56.03-.8.07-.48.11-.83.3-1.05.45-.06.03-.1.07-.14.1-.04.03-.07.06-.1.08-.05.04-.08.07-.08.07h0s-.11.03-.14-.01c-.03-.04-.03-.1.01-.13,0,0,.03-.03.08-.08.03-.03.06-.06.1-.09.04-.04.09-.08.14-.12.06-.04.12-.09.19-.15.08-.05.16-.1.25-.15.09-.05.19-.1.3-.15.11-.05.23-.09.36-.13.26-.07.56-.14.89-.14.33,0,.69.03,1.06.13.37.11.74.29,1.1.56.04.03.09.07.13.1.04.03.08.07.11.1.04.04.08.08.13.11.04.04.08.08.11.12.07.09.16.16.23.26.07.09.14.19.21.28.52.79.82,1.85.68,2.95-.07.55-.25,1.1-.54,1.6l-.11.19c-.04.06-.08.13-.12.19l-.14.18-.07.09s-.05.05-.07.08l-.14.15-.07.08h0s-.02.03-.02.03l-.02.02-.04.04c-.11.1-.22.2-.33.3-.93.74-2.16,1.2-3.42,1.19-.63,0-1.27-.12-1.87-.33-.15-.05-.3-.11-.44-.19-.14-.07-.29-.13-.43-.22-.14-.09-.27-.16-.41-.26l-.4-.31-.32-.3-.04-.04-.04-.04-.02-.02-.08-.09-.15-.18c-.22-.23-.38-.5-.57-.76-.08-.13-.16-.27-.23-.41l-.11-.21-.1-.22c-.06-.14-.13-.29-.18-.43l-.14-.44c-.16-.6-.27-1.21-.26-1.82v-.23c0-.08,0-.15.01-.23.01-.15.02-.3.04-.45.03-.15.05-.3.08-.44.01-.07.02-.15.04-.22l.06-.21c.04-.14.08-.28.12-.42.05-.14.11-.27.16-.41.03-.07.05-.14.08-.2l.1-.19c.07-.13.13-.25.2-.38.08-.12.15-.24.23-.35l.11-.18c.04-.06.09-.11.13-.17.09-.11.18-.22.26-.33.04-.06.09-.1.13-.15l.13-.14c.75-.76,1.59-1.31,2.41-1.71.82-.4,1.63-.64,2.36-.75.73-.11,1.38-.12,1.9-.05.13,0,.25.04.37.06.11.02.22.03.32.06.2.06.36.1.49.15.26.1.4.15.4.15Z"/>
  <path class="cls-1" d="M92.1,24.44s-.04-.14-.1-.41c-.03-.13-.05-.3-.08-.5-.02-.1-.02-.21-.03-.32,0-.11-.02-.23-.02-.36-.01-.51.04-1.13.2-1.81.04-.17.1-.34.14-.52.06-.18.12-.36.19-.54.15-.36.31-.74.53-1.12.05-.09.11-.19.16-.28.06-.09.12-.19.18-.28.11-.19.26-.37.39-.56.07-.09.15-.18.22-.27.07-.09.15-.18.23-.27.08-.09.16-.17.24-.26l.02-.02h0s0,0,0,0l.03-.03.07-.06.14-.13.14-.13s.09-.09.14-.12c.09-.07.19-.14.28-.21.05-.04.09-.07.14-.11l.16-.1c.11-.06.21-.13.32-.2.11-.05.23-.11.34-.16l.17-.08c.06-.03.12-.04.18-.07.12-.04.24-.09.36-.13.12-.04.25-.06.37-.1l.19-.05c.06-.01.13-.02.19-.03.13-.02.26-.04.39-.07.13,0,.26-.02.39-.03.07,0,.13-.01.2-.01h.2c.53,0,1.07.1,1.59.24l.39.12c.13.05.25.1.38.16l.19.08.18.1c.12.07.24.13.36.2.22.16.46.3.66.49l.16.13.08.07.02.02s0,0,0,0h0s.04.05.04.05l.31.32.24.3c.08.1.15.22.22.34.08.11.13.24.19.35.07.12.11.24.16.37.2.5.3,1.03.32,1.57.04,1.07-.33,2.11-.93,2.94-.08.1-.16.2-.24.3l-.05.06-.07.07-.15.14s-.05.05-.07.07l-.07.05-.14.11s-.09.07-.14.1l-.15.1c-.41.26-.87.42-1.32.5-.92.17-1.83-.04-2.54-.45-.09-.06-.17-.11-.26-.17-.09-.05-.16-.12-.24-.18-.04-.03-.08-.06-.12-.09-.03-.03-.07-.07-.1-.1-.04-.04-.07-.07-.11-.11-.04-.04-.06-.07-.09-.1-.23-.27-.42-.59-.53-.9-.11-.32-.17-.63-.19-.92-.02-.29.02-.56.07-.8.11-.48.29-.83.44-1.05.03-.06.07-.11.1-.15.03-.04.06-.07.08-.1.04-.06.06-.08.06-.08h0c.03-.05.03-.11-.02-.15-.04-.03-.1-.03-.13.01,0,0-.03.03-.08.08-.02.03-.06.06-.09.1-.04.04-.08.09-.12.15-.04.06-.09.12-.14.19-.05.08-.1.16-.15.25-.05.09-.1.2-.15.3-.05.11-.09.23-.13.36-.07.26-.13.56-.13.89,0,.33.03.69.15,1.06.12.37.29.74.57,1.09.03.04.07.09.1.13.03.04.07.08.1.11.04.04.08.08.12.12.04.04.08.07.13.11.09.07.17.16.26.22.09.07.19.14.29.21.8.51,1.86.8,2.95.65.55-.07,1.09-.26,1.6-.55l.19-.12c.06-.04.12-.08.19-.13l.18-.14.09-.07s.05-.05.08-.07l.15-.14.07-.07h0s.02-.03.02-.03l.02-.02.04-.04c.1-.11.19-.22.29-.34.74-.94,1.18-2.17,1.15-3.43-.01-.63-.13-1.26-.35-1.86-.06-.15-.11-.3-.19-.44-.08-.14-.14-.29-.23-.42-.09-.13-.17-.27-.27-.4l-.31-.39-.31-.32-.04-.04-.04-.04-.02-.02-.09-.08-.18-.15c-.23-.21-.5-.38-.76-.56-.13-.08-.27-.15-.41-.23l-.21-.11-.22-.09c-.14-.06-.29-.13-.43-.18l-.45-.14c-.6-.16-1.22-.26-1.82-.24h-.23c-.08,0-.15.01-.23.02-.15.01-.3.03-.45.04-.15.03-.29.05-.44.08-.07.01-.15.03-.22.04l-.21.06c-.14.04-.28.08-.42.13-.14.06-.27.11-.4.16-.07.03-.13.05-.2.08l-.19.1c-.13.07-.25.13-.38.2-.12.08-.24.16-.35.23l-.17.12c-.06.04-.11.09-.17.13-.11.09-.22.18-.33.27-.06.04-.1.09-.15.13l-.14.14c-.75.76-1.29,1.6-1.68,2.43-.39.83-.62,1.64-.73,2.37-.11.73-.1,1.38-.03,1.9,0,.13.04.25.06.37.02.11.04.22.07.32.06.2.1.36.15.49.1.26.16.4.16.4Z"/>
  <path class="cls-1" d="M42.23,46.81c-.23,1.41,1.23,2.94-.56,4.98-1.79,2.03-4.6,1.5-5.94,2.38.71-1.44-.17-4.15,1.63-6.19,1.79-2.03,3.5-.76,4.87-1.17Z"/>
  <path class="cls-1" d="M66.28,22.51c1.41-.25,2.96,1.2,4.97-.61,2.01-1.82,1.45-4.61,2.32-5.96-1.43.72-4.16-.12-6.17,1.69-2.01,1.81-.73,3.51-1.12,4.88Z"/>
  <path class="cls-1" d="M41.46,37.07c-.86,1.14-.27,3.18-2.81,4.15-2.53.97-4.77-.81-6.36-.65,1.29-.94,1.78-3.76,4.31-4.72,2.53-.97,3.46.95,4.86,1.22Z"/>
  <path class="cls-1" d="M56.53,21.84c1.13-.87,3.18-.31,4.12-2.85.94-2.54-.85-4.76-.71-6.36-.93,1.3-3.74,1.82-4.68,4.36-.94,2.54.98,3.45,1.27,4.84Z"/>
  <path class="cls-1" d="M40.47,21.02c-.04.7.03,1.43.36,2.17,1.08,2.49,3.1,1.8,4.27,2.61,0-.06.02-.11.03-.17.05-.01.11-.03.16-.03-.82-1.17-.16-3.19-2.66-4.25-.75-.32-1.47-.39-2.17-.34Z"/>
  <path class="cls-1" d="M60.72,41.06c-.81-.33-1.59-.73-2.34-1.21-.16-.1-.32-.21-.47-.32-.16-.11-.31-.22-.46-.34l-.23-.18-.06-.04s-.06-.05-.07-.06l-.1-.09-.21-.19s-.07-.06-.1-.1l-.11-.11c-.29-.29-.54-.59-.78-.91-.11-.16-.23-.32-.34-.49-.1-.17-.21-.34-.3-.51-.3-.54-.55-1.11-.74-1.7.59.19,1.16.43,1.71.73.17.1.34.2.51.3.17.1.33.22.49.33.32.23.62.48.91.77l.11.1s.06.07.1.1l.19.21.09.1s.05.05.06.07l.05.06.18.22c.12.15.23.3.35.46.12.15.22.31.33.47.49.74.9,1.51,1.24,2.32ZM56.3,36.68c.07.1.14.2.21.31.21.29.44.56.67.8l.09.09s.07.06.1.09l.21.19.1.09s.02.02.04.03l.05.04.21.17c.14.12.28.22.43.33.08.06.17.12.25.18-.06-.09-.12-.17-.19-.25-.11-.14-.21-.29-.33-.42l-.17-.21-.04-.05s0,0-.03-.04l-.1-.1-.19-.2s-.06-.07-.1-.1l-.1-.09c-.24-.23-.52-.45-.81-.66-.1-.07-.21-.14-.31-.21ZM56.51,36.89c-.22.11-.43.23-.64.35-.13.08-.26.17-.4.25-.07.04-.13.08-.2.13l-.19.14c-.12.09-.25.18-.38.27-.12.1-.24.19-.35.29-.12.09-.23.2-.35.31l-.17.16-.09.08-.04.04s-.02.02-.03.03c-1.74,1.72-2.83,3.94-3.23,6.18l-.04.21-.03.21c-.02.14-.04.28-.06.42-.01.14-.03.28-.04.42l-.02.21v.21c-.01.14-.02.28-.02.42,0,.14,0,.28,0,.41v.21s.02.2.02.2c0,.14.02.27.03.41.11,1.08.34,2.13.75,3.07.09.24.21.46.32.69.06.11.13.22.19.33l.09.16c.03.05.07.1.1.15.27.42.59.79.93,1.12.09.08.18.16.26.24.09.07.19.14.28.22.05.03.09.07.14.1l.15.09c.1.06.19.13.3.18.1.05.2.1.3.15.05.03.1.05.16.07l.34.13s.04.02.03.01h.04s.08.04.08.04c.11.03.22.07.33.1.88.23,1.77.3,2.61.18.83-.13,1.6-.45,2.19-.93.6-.48,1.01-1.12,1.2-1.79.09-.34.13-.68.13-1.01,0-.33-.07-.66-.15-.97-.02-.07-.05-.15-.07-.22-.02-.07-.06-.15-.09-.23l-.05-.12s-.03-.07-.05-.1c-.03-.07-.07-.14-.1-.21-.15-.26-.31-.5-.51-.7-.2-.2-.42-.35-.64-.48-.23-.12-.48-.19-.72-.24-.48-.08-.96-.04-1.37.07-.41.12-.77.29-1.04.5-.28.21-.49.45-.61.68-.13.23-.17.46-.17.64,0,.09,0,.17.03.24.01.07.03.13.05.17.03.09.05.14.05.14,0,0-.02-.04-.07-.13-.03-.04-.05-.1-.07-.17-.03-.07-.04-.15-.06-.25-.02-.19,0-.44.11-.71.11-.27.31-.55.59-.8.29-.25.65-.48,1.1-.63.44-.15.97-.24,1.53-.16.28.04.57.12.85.25.28.13.54.32.78.54.24.23.43.5.61.8.04.08.08.15.12.23.02.04.04.07.06.12l.05.11c.03.08.06.15.09.24.03.09.06.17.08.26.1.35.16.71.18,1.1.01.38-.03.78-.14,1.17-.21.78-.68,1.53-1.36,2.08-.67.56-1.54.92-2.45,1.07-.92.15-1.89.08-2.85-.17-.12-.03-.24-.07-.36-.1l-.09-.03h-.04s-.06-.03-.06-.03l-.17-.06c-.11-.05-.22-.08-.34-.14-.12-.06-.24-.12-.36-.17-.12-.06-.22-.13-.34-.2l-.17-.1c-.06-.03-.11-.08-.16-.12-.1-.08-.21-.16-.31-.24-.1-.09-.2-.18-.29-.26-.38-.37-.74-.77-1.03-1.22-.04-.06-.08-.11-.11-.17l-.1-.17c-.07-.12-.14-.23-.2-.35-.12-.24-.25-.49-.35-.74-.44-1.01-.69-2.12-.81-3.26,0-.14-.02-.29-.03-.43v-.22s-.02-.22-.02-.22c0-.14,0-.29,0-.44,0-.15.01-.29.02-.44v-.22s.03-.22.03-.22c.01-.15.03-.29.04-.44.02-.15.04-.29.06-.44l.03-.22.04-.22c.42-2.35,1.57-4.7,3.41-6.53.02-.02.02-.02.05-.05l.04-.04.09-.08.17-.16c.12-.11.23-.22.36-.32.13-.1.26-.21.39-.31.13-.1.27-.19.4-.29l.2-.14c.07-.05.14-.09.21-.13.14-.09.28-.18.42-.26.16-.09.32-.18.48-.26.08-.16.17-.32.26-.48.09-.14.17-.28.26-.42.04-.07.09-.14.13-.21l.14-.2c.1-.13.19-.27.29-.4.1-.13.21-.26.31-.39.1-.13.21-.25.32-.36l.16-.18.08-.09.04-.04s.03-.03.05-.05c1.81-1.86,4.14-3.03,6.49-3.48l.22-.04.22-.03c.15-.02.29-.04.44-.07.15-.01.29-.03.44-.04l.22-.02h.22c.15-.02.29-.02.44-.03.15,0,.29,0,.44,0h.22s.22.01.22.01c.14,0,.29.02.43.02,1.14.11,2.25.35,3.27.77.26.1.5.22.74.34.12.06.24.13.36.2l.18.1c.06.04.11.07.17.11.46.29.86.64,1.23,1.02.09.1.18.19.27.29.08.1.16.21.24.31.04.05.08.1.12.16l.1.17c.07.11.14.21.2.33.06.12.12.24.18.36.06.12.09.23.14.34l.06.17.02.06v.04s.04.09.04.09c.03.12.07.24.1.35.25.95.33,1.92.19,2.85-.14.92-.5,1.78-1.05,2.46-.55.68-1.29,1.17-2.07,1.38-.39.11-.78.16-1.16.15-.38-.01-.75-.07-1.1-.17-.09-.03-.18-.05-.26-.08-.09-.03-.16-.06-.24-.09l-.12-.04c-.06-.02-.08-.04-.13-.06-.08-.04-.16-.08-.23-.11-.3-.17-.57-.37-.81-.6-.23-.24-.42-.5-.55-.78-.13-.28-.21-.57-.25-.85-.08-.56,0-1.09.15-1.53.15-.45.38-.82.62-1.1.25-.29.53-.49.8-.6.27-.12.52-.13.71-.11.1.01.18.03.25.06.07.02.13.04.17.07.09.04.13.07.13.07,0,0-.05-.02-.14-.05-.04-.02-.1-.03-.17-.04-.07-.02-.15-.02-.24-.02-.18,0-.41.05-.64.18-.23.13-.47.34-.68.62-.21.28-.38.64-.49,1.05-.11.41-.15.88-.06,1.37.05.24.13.48.25.71.13.23.29.44.48.64.2.19.44.36.71.5.07.03.14.06.21.1.03.01.08.04.1.04l.12.04c.08.03.16.06.23.08.07.02.15.04.22.07.31.08.64.13.97.14.33,0,.68-.04,1.01-.14.67-.19,1.31-.61,1.78-1.22.48-.6.79-1.37.91-2.2.12-.83.04-1.73-.21-2.6-.03-.11-.07-.22-.1-.33l-.03-.08v-.04s-.02-.02-.02-.03l-.13-.34c-.02-.06-.04-.11-.07-.16-.05-.1-.1-.2-.15-.3-.05-.1-.12-.19-.18-.29l-.09-.15s-.07-.09-.11-.14c-.07-.09-.14-.19-.22-.28-.08-.09-.16-.17-.24-.26-.34-.34-.71-.66-1.13-.92-.05-.03-.1-.07-.16-.1l-.16-.09c-.11-.06-.22-.13-.33-.18-.23-.11-.45-.23-.69-.32-.95-.4-2-.62-3.08-.72-.14,0-.27-.01-.41-.02h-.2s-.21-.01-.21-.01c-.14,0-.28,0-.41,0-.14,0-.28.01-.42.02h-.21s-.21.03-.21.03c-.14.01-.28.03-.42.04-.14.02-.28.04-.42.06l-.21.03-.21.04c-2.23.43-4.43,1.54-6.14,3.3-.01.01-.03.03-.03.03l-.04.04-.08.09-.16.18c-.11.12-.22.23-.3.35-.09.12-.19.24-.28.36-.09.12-.18.25-.27.38l-.13.19c-.04.06-.08.13-.12.2-.08.13-.16.27-.24.4-.11.21-.23.42-.34.64Z"/>
  <path class="cls-1" d="M42.06,64.25s0-.02.01-.05c0-.03.02-.08.04-.15.03-.12.05-.32,0-.55-.04-.23-.16-.5-.36-.76-.21-.26-.51-.52-.88-.74-.74-.45-1.8-.8-2.97-.75-.29.01-.58.05-.87.13-.29.07-.57.18-.85.33-.54.29-1.02.74-1.39,1.33-.18.3-.34.63-.46.99l-.02.07s-.01.03,0,0v.02s-.02.04-.02.04l-.05.15s-.03.1-.04.15l-.03.13-.03.13-.03.14c-.02.09-.04.19-.05.28-.11.76-.03,1.55.26,2.32.27.77.76,1.5,1.38,2.14.62.64,1.38,1.19,2.23,1.62.85.43,1.78.74,2.75.88.97.14,1.98.13,2.94-.12.96-.24,1.88-.7,2.63-1.38.38-.33.71-.72,1.01-1.13.29-.42.54-.86.75-1.35.12-.25.21-.49.31-.73.05-.12.09-.24.13-.37.04-.12.09-.25.13-.37.16-.5.27-1,.35-1.51.14-1.02.1-2.06-.07-3.09-.16-1.03-.42-2.06-.64-3.09-.22-1.03-.41-2.06-.53-3.08-.12-1.02-.17-2.04-.18-3.03,0-.99.06-1.96.15-2.9.09-.94.23-1.84.4-2.72.18-.87.41-1.7.67-2.49.26-.78.58-1.51.92-2.19.34-.68.71-1.29,1.1-1.84.78-1.1,1.62-1.95,2.39-2.55.76-.61,1.44-.98,1.92-1.21.24-.11.43-.19.56-.24.13-.05.21-.07.21-.07.16-.04.32.05.37.21.04.16-.05.32-.21.37,0,0-.05.01-.17.06-.12.04-.29.11-.51.22-.44.21-1.08.56-1.8,1.14-.72.57-1.52,1.37-2.27,2.43-.75,1.05-1.42,2.37-1.93,3.88-.25.76-.47,1.57-.63,2.41-.16.84-.3,1.74-.37,2.65-.08.92-.13,1.86-.13,2.83,0,.97.07,1.95.2,2.94.13.99.32,2,.55,3.01.23,1.01.5,2.04.68,3.12.19,1.07.26,2.21.11,3.33-.08.56-.19,1.11-.36,1.65-.04.14-.09.27-.13.4-.05.13-.09.27-.14.4-.1.26-.21.53-.32.77l-.17.38-.19.38-.21.37-.23.36c-.32.48-.69.92-1.12,1.31-.42.39-.89.74-1.39,1.02-.5.29-1.04.5-1.59.66-1.1.32-2.24.39-3.35.28-1.11-.11-2.18-.42-3.16-.86-.99-.45-1.89-1.05-2.66-1.79-.76-.74-1.39-1.63-1.76-2.61-.37-.98-.49-2.04-.35-3.02.01-.12.04-.24.06-.36.01-.06.02-.12.04-.18l.05-.19.05-.18c.02-.06.03-.1.05-.16l.05-.15v-.04s.03-.06.03-.06l.03-.08c.16-.44.37-.86.61-1.25.25-.39.55-.75.88-1.06.34-.31.71-.56,1.11-.74.79-.38,1.61-.49,2.35-.46.74.04,1.41.22,1.98.46.57.25,1.06.57,1.44.91.38.35.67.73.84,1.1.18.37.22.73.19,1-.03.28-.12.47-.19.58-.03.06-.06.1-.08.13-.02.03-.03.04-.03.04Z"/>
  <path class="cls-1" d="M83.71,22.16s-.02,0-.05.01c-.03,0-.08.03-.15.04-.12.03-.32.05-.55.01-.23-.04-.5-.15-.77-.36-.26-.2-.52-.5-.75-.87-.45-.74-.81-1.79-.78-2.96,0-.29.05-.59.12-.88.07-.29.18-.58.32-.85.28-.55.73-1.03,1.32-1.4.3-.18.63-.34.98-.47l.07-.02s.03-.01,0,0h.02s.04-.02.04-.02l.15-.05s.1-.03.15-.05l.13-.03.13-.03.14-.03c.09-.02.19-.04.28-.05.75-.11,1.55-.04,2.32.24.77.27,1.51.74,2.15,1.36.65.61,1.21,1.37,1.64,2.21.44.84.76,1.77.91,2.74.15.97.15,1.98-.09,2.94-.23.97-.68,1.88-1.35,2.64-.33.38-.71.72-1.12,1.02-.42.3-.86.55-1.34.77-.25.12-.48.22-.72.32-.12.05-.24.09-.37.14-.12.04-.24.09-.37.13-.5.16-1,.28-1.51.36-1.02.15-2.06.12-3.09-.04-1.03-.15-2.06-.4-3.09-.61-1.03-.21-2.06-.39-3.09-.5-1.02-.11-2.04-.15-3.03-.14-.99.01-1.96.08-2.89.18-.94.1-1.83.25-2.71.43-.87.19-1.7.43-2.48.7-.78.27-1.51.6-2.18.94-.67.35-1.29.72-1.83,1.12-1.1.79-1.93,1.64-2.53,2.42-.6.77-.97,1.45-1.19,1.93-.11.24-.18.43-.23.56-.05.13-.07.21-.07.21-.04.16.05.32.21.37.16.04.32-.05.37-.21,0,0,.01-.05.06-.17.04-.12.11-.29.21-.51.2-.44.55-1.08,1.12-1.81.56-.73,1.36-1.54,2.41-2.29,1.04-.76,2.35-1.44,3.86-1.97.76-.26,1.56-.48,2.41-.66.84-.17,1.73-.32,2.65-.4.92-.09,1.86-.15,2.83-.16.97,0,1.95.05,2.95.17,1,.12,2,.3,3.02.52,1.02.22,2.05.48,3.13.65,1.07.18,2.21.23,3.33.08.56-.08,1.11-.21,1.65-.37.14-.04.27-.09.4-.13.13-.05.27-.09.4-.14.26-.11.53-.21.77-.33l.38-.17.38-.19.37-.21.36-.23c.47-.32.91-.7,1.3-1.13.39-.43.73-.9,1.01-1.4.28-.5.49-1.04.64-1.59.31-1.1.37-2.25.24-3.35-.12-1.11-.44-2.17-.9-3.15-.46-.98-1.07-1.88-1.82-2.64-.75-.75-1.64-1.37-2.62-1.74-.98-.36-2.05-.47-3.03-.32-.12.01-.24.04-.36.06-.06.01-.12.02-.18.04l-.18.05-.18.05c-.06.02-.1.03-.16.05l-.15.05h-.04s-.06.03-.06.03l-.08.03c-.44.17-.86.37-1.25.63-.39.25-.74.56-1.05.89-.3.34-.55.72-.73,1.11-.37.79-.48,1.62-.43,2.35.04.74.23,1.4.48,1.98.26.57.58,1.05.93,1.43.35.38.74.66,1.11.83.37.17.73.21,1.01.18.28-.03.47-.13.58-.19.06-.03.1-.07.13-.08.03-.02.04-.03.04-.03Z"/>
  <path class="cls-1" d="M55.42,35.82s-.04.06-.08.08c-.07.02-.14-.01-.17-.08h0s-.02-.06-.06-.17c-.02-.07-.06-.14-.1-.23.09.04.16.08.23.1.11.04.17.06.17.06h0c.07.02.1.1.08.17-.01.04-.04.07-.07.08Z"/>
  <path class="cls-1" d="M56.18,37.03s-.02.04-.03.06c-.09.13-.28.17-.41.07-.06-.04-4.2-2.47-14.31,11.17-.1.13-.29.16-.42.06-.13-.1-.16-.29-.06-.42,10.56-14.26,14.94-11.43,15.13-11.3.12.08.16.23.1.36Z"/>
  <path class="cls-1" d="M56.64,36.57s.04-.02.06-.03c.13-.1.16-.28.07-.41-.04-.06-2.52-4.17,11.02-14.42.13-.1.16-.29.06-.42-.1-.13-.29-.16-.42-.06-14.15,10.71-11.28,15.06-11.15,15.24.08.12.23.15.36.1Z"/>
  <path class="cls-1" d="M56.61,37s-.08.06-.13.08c-.23.07-5.49,1.49-12.09-12.17,13.72,6.46,12.36,11.74,12.29,11.97-.01.05-.04.09-.07.13ZM45.72,26.22c5.34,10.26,9.54,10.41,10.42,10.31.09-.89-.1-5.07-10.42-10.31Z"/>
  <path class="cls-1" d="M55.1,36.78c-.05.12-.18.2-.32.18-.1-.02-9.96-1.58-14.76.92-.15.08-.33.02-.4-.13-.08-.15-.02-.33.13-.4,4.97-2.59,14.72-1.05,15.13-.98.16.03.27.18.25.34,0,.02-.01.05-.02.07Z"/>
  <path class="cls-1" d="M56.38,35.49c.12-.05.2-.19.18-.33-.02-.1-1.68-9.95.77-14.77.07-.15.02-.33-.13-.4-.15-.07-.33-.02-.4.13-2.54,5-.89,14.73-.82,15.14.03.16.18.27.35.24.02,0,.05-.01.07-.02Z"/>
  <path class="cls-1" d="M58.07,48.68c.94.39,1.38,1.47.98,2.41-.39.94-1.47,1.38-2.41.98-.94-.39-1.38-1.47-.98-2.41.39-.94,1.47-1.38,2.41-.98Z"/>
  <path class="cls-1" d="M68.32,38.33c.4.93,1.49,1.36,2.42.96.93-.4,1.36-1.49.96-2.42-.4-.93-1.49-1.36-2.42-.96-.93.4-1.36,1.49-.96,2.42Z"/>
  <path class="cls-1" d="M41.27,61.58c.94.39,1.38,1.47.98,2.41-.39.94-1.47,1.38-2.41.98-.94-.39-1.38-1.47-.98-2.41s1.47-1.38,2.41-.98Z"/>
  <path class="cls-1" d="M81.04,21.4c.4.93,1.49,1.36,2.42.96.93-.4,1.36-1.49.96-2.42-.4-.93-1.49-1.36-2.42-.96-.93.4-1.36,1.49-.96,2.42Z"/>
  <path class="cls-1" d="M41.31,77.27c.94.39,1.38,1.47.98,2.41s-1.47,1.38-2.41.98c-.94-.39-1.38-1.47-.98-2.41s1.47-1.38,2.41-.98Z"/>
  <path class="cls-1" d="M96.73,21.28c.4.93,1.49,1.36,2.42.96.93-.4,1.36-1.49.96-2.42-.4-.93-1.49-1.36-2.42-.96-.93.4-1.36,1.49-.96,2.42Z"/>
  <path class="cls-1" d="M43.88,67.52c.8-.19,1.61.31,1.79,1.11.19.8-.31,1.61-1.11,1.79-.8.19-1.61-.31-1.79-1.11-.19-.8.31-1.61,1.11-1.79Z"/>
  <path class="cls-1" d="M87,23.95c-.18.8.32,1.6,1.13,1.78.8.18,1.6-.32,1.78-1.13.18-.8-.32-1.6-1.13-1.78-.8-.18-1.6.32-1.78,1.13Z"/>
  <path class="cls-1" d="M46.17,64.16c.67-.16,1.35.26,1.51.93.16.67-.26,1.35-.93,1.51-.67.16-1.35-.26-1.51-.93-.16-.67.26-1.35.93-1.51Z"/>
  <path class="cls-1" d="M83.67,26.27c-.15.68.27,1.35.95,1.5.67.15,1.35-.27,1.5-.95.15-.68-.27-1.35-.95-1.5-.68-.15-1.35.27-1.5.95Z"/>
  <path class="cls-1" d="M46.49,60.77c.6-.14,1.19.23,1.33.83.14.6-.23,1.19-.83,1.34-.6.14-1.19-.23-1.33-.83-.14-.6.23-1.19.83-1.34Z"/>
  <path class="cls-1" d="M80.28,26.63c-.13.6.24,1.19.84,1.33.6.13,1.19-.24,1.33-.84.13-.6-.24-1.19-.84-1.33-.6-.13-1.19.24-1.33.84Z"/>
  <path class="cls-1" d="M46.16,57.26c.55-.13,1.09.21,1.22.75.13.54-.21,1.09-.75,1.22-.55.13-1.09-.21-1.22-.75-.13-.54.21-1.09.75-1.22Z"/>
  <path class="cls-1" d="M76.76,26.34c-.12.55.22,1.09.77,1.21.55.12,1.09-.22,1.21-.77.12-.55-.22-1.09-.77-1.21-.55-.12-1.09.22-1.21.77Z"/>
  <path class="cls-1" d="M45.83,53.99c.47-.11.94.18,1.05.65.11.47-.18.94-.65,1.05-.47.11-.94-.18-1.05-.65-.11-.47.18-.94.65-1.05Z"/>
  <path class="cls-1" d="M73.49,26.04c-.11.47.19.93.66,1.04.47.11.93-.19,1.04-.66.11-.47-.19-.94-.66-1.04-.47-.11-.94.19-1.04.66Z"/>
  <path class="cls-1" d="M45.84,51.04c.44-.1.89.17.99.61.1.44-.17.89-.61.99-.44.1-.89-.17-.99-.61-.1-.44.17-.89.61-.99Z"/>
  <path class="cls-1" d="M70.54,26.08c-.1.44.18.88.62.98.44.1.88-.18.98-.62.1-.44-.18-.88-.62-.98-.44-.1-.88.18-.98.62Z"/>
  <path class="cls-1" d="M46.33,48.29c.38-.09.76.14.85.52.09.38-.15.76-.52.85-.38.09-.76-.15-.85-.52-.09-.38.15-.76.52-.85Z"/>
  <path class="cls-1" d="M67.8,26.6c-.09.38.15.76.53.84.38.09.76-.15.84-.53.09-.38-.15-.76-.53-.84-.38-.09-.76.15-.84.53Z"/>
  <path class="cls-1" d="M46.74,45.89c.33-.08.65.13.73.45.08.33-.13.65-.45.73-.33.08-.65-.13-.73-.45-.08-.33.13-.65.45-.73Z"/>
  <path class="cls-1" d="M65.4,27.03c-.07.33.13.65.46.73.33.07.65-.13.73-.46.07-.33-.13-.65-.46-.73-.33-.07-.65.13-.73.46Z"/>
  <path class="cls-1" d="M47.66,43.79c.29-.07.58.11.65.4.07.29-.11.58-.4.65-.29.07-.58-.11-.64-.4-.07-.29.11-.58.4-.65Z"/>
  <path class="cls-1" d="M63.32,27.98c-.06.29.12.58.41.64.29.07.58-.12.64-.41.06-.29-.12-.58-.41-.64-.29-.07-.58.12-.64.41Z"/>
  <path class="cls-1" d="M48.61,41.94c.23-.05.46.09.52.32.05.23-.09.46-.32.52-.23.05-.46-.09-.52-.32-.05-.23.09-.46.32-.52Z"/>
  <path class="cls-1" d="M61.48,28.94c-.05.23.09.46.32.51.23.05.46-.09.51-.32.05-.23-.09-.46-.32-.51-.23-.05-.46.09-.51.32Z"/>
  <path class="cls-1" d="M49.81,40.35c.2-.05.4.08.45.28s-.08.4-.28.45c-.2.05-.4-.08-.45-.28-.05-.2.08-.4.28-.45Z"/>
  <path class="cls-1" d="M59.9,30.16c-.05.2.08.4.28.45s.4-.08.45-.28c.05-.2-.08-.4-.28-.45-.2-.05-.4.08-.45.28Z"/>
  <path class="cls-1" d="M50.86,39.1c.16-.04.33.06.37.23.04.16-.06.33-.23.37-.16.04-.33-.06-.37-.23-.04-.16.06-.33.23-.36Z"/>
  <path class="cls-1" d="M58.66,31.23c-.04.16.07.33.23.36.16.04.33-.07.36-.23.04-.16-.07-.33-.23-.36-.16-.04-.33.07-.36.23Z"/>
  <path class="cls-1" d="M51.94,38.24c.12-.03.24.04.26.16.03.12-.05.24-.16.26-.12.03-.24-.05-.26-.16-.03-.12.04-.24.16-.26Z"/>
  <path class="cls-1" d="M57.81,32.32c-.03.12.05.24.17.26.12.03.24-.05.26-.17.03-.12-.05-.24-.17-.26-.12-.03-.24.05-.26.17Z"/>
  <path class="cls-1" d="M52.94,37.61c.09-.02.17.03.19.12.02.09-.03.17-.12.19-.09.02-.17-.03-.19-.12-.02-.09.03-.17.12-.19Z"/>
  <path class="cls-1" d="M57.19,33.32c-.02.09.03.17.12.19.09.02.17-.03.19-.12.02-.09-.03-.17-.12-.19-.09-.02-.17.03-.19.12Z"/>
</svg>