<?xml version="1.0" encoding="UTF-8"?>
<svg id="Layer_1" data-name="Layer 1" xmlns="http://www.w3.org/2000/svg" viewBox="0 0 109.28 229.65">
  <defs>
    <style>
      .cls-1 {
        fill: #0f5b63;
      }
    </style>
  </defs>
  <g>
    <path class="cls-1" d="M72.53,150.78h0c0-.06-.04.04,0,0,.04-.04-.06,0,0,0,0,0-.07,0,0,0,.33-.05-.93,1.06,0,0,1.08-1.23,0,5.5,0,0,0-.12-.12,0,0,0s0-.12,0,0c0,5.5-1.09-1.23,0,0,.94,1.06-.33-.05,0,0,.07,0,0,0,0,0,.06,0-.04-.04,0,0,.04.04,0-.06,0,0h0c0,.06.04-.04,0,0-.04.04.06,0,0,0,0,0,.07,0,0,0-.33.05.94-1.06,0,0-1.09,1.23,0-5.5,0,0,0,.12.12,0,0,0s0,.12,0,0c0-5.5,1.08,1.23,0,0-.93-1.06.33.05,0,0-.07,0,0,0,0,0-.06,0,.04.04,0,0-.04-.04,0,.06,0,0ZM72.53,150.78c-.35,2.66,1.17-1.31,0,0-.6.67.47-.2,0,0,.47.2-.6-.67,0,0,1.17,1.31-.35-2.66,0,0,.35-2.66-1.18,1.31,0,0,.61-.67-.48.2,0,0-.48-.2.61.67,0,0-1.18-1.31.35,2.66,0,0Z"/>
    <g>
      <path class="cls-1" d="M72.53,150.78c-.53,0,0,.53,0,0s-.53,0,0,0,0-.53,0,0,.53,0,0,0Z"/>
      <polygon class="cls-1" points="72.53 150.78 72.27 101.37 72.71 101.37 72.53 150.78 72.53 150.78"/>
      <circle class="cls-1" cx="72.49" cy="101.12" r="1.25"/>
      <path class="cls-1" d="M72.53,150.78c-.69,0,0,.69,0,0s-.69,0,0,0,0-.69,0,0,.69,0,0,0Z"/>
    </g>
    <g>
      <path class="cls-1" d="M72.53,150.78c.53,0,0-.53,0,0s.53,0,0,0,0,.53,0,0-.53,0,0,0Z"/>
      <polygon class="cls-1" points="72.27 200.19 72.53 150.78 72.53 150.78 72.71 200.19 72.27 200.19"/>
      <path class="cls-1" d="M72.49,199.18c.69,0,1.25.56,1.25,1.25s-.56,1.25-1.25,1.25-1.25-.56-1.25-1.25.56-1.25,1.25-1.25Z"/>
      <path class="cls-1" d="M72.53,150.78c.69,0,0-.69,0,0s.69,0,0,0,0,.69,0,0-.69,0,0,0Z"/>
    </g>
  </g>
  <path class="cls-1" d="M69.14,80.52s.14-.04.41-.1c.13-.03.3-.05.5-.08.1-.02.21-.02.32-.03.11,0,.23-.02.36-.02.51-.01,1.13.04,1.81.2.17.04.34.1.52.14.18.06.36.12.54.19.36.15.74.31,1.12.53.09.05.19.11.28.16.09.06.19.12.28.18.19.11.37.26.56.39.09.07.18.15.27.22.09.07.18.15.27.23.09.08.17.16.26.24l.02.02h0s0,0,0,0l.03.03.06.07.13.14.13.14s.09.09.12.14c.07.09.14.19.21.28.04.05.07.09.11.14l.1.16c.06.11.13.21.2.32.05.11.11.23.16.34l.08.17c.03.06.04.12.07.18.04.12.09.24.13.36.04.12.06.25.1.37l.05.19c.01.06.02.13.03.19.02.13.04.26.07.39,0,.13.02.26.03.39,0,.07.01.13.01.2v.2c0,.53-.1,1.07-.24,1.59l-.12.39c-.05.13-.1.25-.16.38l-.08.19-.1.18c-.07.12-.13.24-.2.36-.16.22-.3.46-.49.66l-.13.16-.07.08-.02.02s0,0,0,0h0s-.04.05-.04.05l-.32.31-.3.24c-.1.08-.22.15-.34.22-.11.08-.24.13-.35.19-.12.07-.24.11-.37.16-.5.2-1.03.3-1.57.32-1.07.04-2.11-.33-2.94-.93-.1-.08-.2-.16-.3-.24l-.06-.05-.07-.07-.14-.15s-.05-.05-.07-.07l-.05-.07-.11-.14s-.07-.09-.1-.14l-.1-.15c-.26-.41-.42-.87-.5-1.32-.17-.92.04-1.83.45-2.54.06-.09.11-.17.17-.26.05-.09.12-.16.18-.24.03-.04.06-.08.09-.12.03-.03.07-.07.1-.1.04-.04.07-.07.11-.11.04-.04.07-.06.1-.09.27-.23.59-.42.9-.53.32-.11.63-.17.92-.19.29-.02.56.02.8.07.48.11.83.29,1.05.44.06.03.11.07.15.1.04.03.07.06.1.08.05.04.08.06.08.06h0s.11.03.14-.01c.03-.04.03-.1-.01-.13,0,0-.03-.03-.08-.08-.03-.02-.06-.06-.1-.09-.04-.04-.09-.08-.15-.12-.06-.04-.12-.09-.19-.14-.08-.05-.16-.1-.25-.15-.09-.05-.2-.1-.3-.15-.11-.05-.23-.09-.36-.13-.26-.07-.56-.13-.89-.13-.33,0-.69.03-1.06.15-.37.12-.74.29-1.09.57-.04.03-.09.07-.13.1-.04.03-.08.07-.11.1-.04.04-.08.08-.12.12-.04.04-.07.08-.11.13-.07.09-.16.17-.22.26-.07.09-.14.19-.21.29-.51.8-.8,1.86-.65,2.95.07.55.26,1.09.55,1.6l.12.19c.04.06.08.12.13.19l.14.18.07.09s.05.05.07.08l.14.15.07.07h0s.02.03.02.03l.02.02.04.04c.11.1.22.19.34.29.94.74,2.17,1.18,3.43,1.15.63-.01,1.26-.13,1.86-.35.15-.06.3-.11.44-.19.14-.08.29-.14.42-.23.13-.09.27-.17.4-.27l.39-.31.32-.31.04-.04.04-.04.02-.02.08-.09.15-.18c.21-.23.38-.5.56-.76.08-.13.15-.27.23-.41l.11-.21.09-.22c.06-.14.13-.29.18-.43l.14-.45c.16-.6.26-1.22.24-1.82v-.23c0-.08-.01-.15-.02-.23-.01-.15-.03-.3-.04-.45-.03-.15-.05-.29-.08-.44-.01-.07-.03-.15-.04-.22l-.06-.21c-.04-.14-.08-.28-.13-.42-.06-.14-.11-.27-.16-.4-.03-.07-.05-.13-.08-.2l-.1-.19c-.07-.13-.13-.25-.2-.38-.08-.12-.16-.24-.23-.35l-.12-.17c-.04-.06-.09-.11-.13-.17-.09-.11-.18-.22-.27-.33-.04-.06-.09-.1-.13-.15l-.14-.14c-.76-.75-1.6-1.29-2.43-1.68-.83-.39-1.64-.62-2.37-.73-.73-.11-1.38-.1-1.9-.03-.13,0-.25.04-.37.06-.11.02-.22.04-.32.07-.2.06-.36.1-.49.15-.26.1-.4.16-.4.16Z"/>
  <path class="cls-1" d="M46.77,30.65c-1.41-.23-2.94,1.23-4.98-.56-2.03-1.79-1.5-4.6-2.38-5.94,1.44.71,4.15-.17,6.19,1.63,2.03,1.79.76,3.5,1.17,4.87Z"/>
  <path class="cls-1" d="M71.07,54.7c.25,1.41-1.2,2.96.61,4.97,1.82,2.01,4.61,1.45,5.96,2.32-.72-1.43.12-4.16-1.69-6.17-1.81-2.01-3.51-.73-4.88-1.12Z"/>
  <path class="cls-1" d="M56.51,29.88c-1.14-.86-3.18-.27-4.15-2.81-.97-2.53.81-4.77.65-6.36.94,1.29,3.76,1.78,4.72,4.31.97,2.53-.95,3.46-1.22,4.86Z"/>
  <path class="cls-1" d="M71.73,44.95c.87,1.13.31,3.18,2.85,4.12,2.54.94,4.76-.85,6.36-.71-1.3-.93-1.82-3.74-4.36-4.68-2.54-.94-3.45.98-4.84,1.27Z"/>
  <path class="cls-1" d="M72.56,28.89c-.7-.04-1.43.03-2.17.36-2.49,1.08-1.8,3.1-2.61,4.27.06,0,.11.02.17.03.01.05.03.11.03.16,1.17-.82,3.19-.16,4.25-2.66.32-.75.39-1.47.34-2.17Z"/>
  <path class="cls-1" d="M52.52,49.14c.33-.81.73-1.6,1.21-2.34.1-.16.21-.32.32-.47.11-.16.22-.31.34-.46l.18-.23.04-.06s.05-.06.06-.07l.09-.1.19-.21s.06-.07.1-.1l.11-.11c.29-.29.59-.54.91-.78.16-.11.32-.23.49-.34.17-.1.34-.21.51-.3.54-.3,1.11-.55,1.7-.74-.19.59-.43,1.16-.73,1.71-.1.17-.2.34-.3.51-.1.17-.22.33-.33.49-.23.32-.48.62-.77.91l-.1.11s-.07.06-.1.1l-.21.19-.1.09s-.05.05-.07.06l-.06.05-.22.18c-.15.12-.3.23-.46.35-.15.12-.31.22-.47.33-.74.49-1.51.9-2.32,1.24ZM56.89,44.72c-.1.07-.2.14-.31.21-.29.21-.56.44-.8.67l-.09.09s-.06.07-.09.1l-.19.21-.09.1s-.02.02-.03.04l-.04.05-.17.21c-.12.14-.22.28-.33.43-.06.08-.12.17-.18.25.09-.06.17-.12.25-.19.14-.11.29-.21.42-.33l.21-.17.05-.04s0,0,.04-.03l.1-.1.2-.19s.07-.06.1-.1l.09-.09c.23-.24.45-.52.66-.81.07-.1.14-.21.21-.31ZM56.68,44.93c-.11-.22-.23-.43-.35-.64-.08-.13-.17-.26-.25-.4-.04-.07-.08-.13-.13-.2l-.14-.19c-.09-.12-.18-.25-.27-.38-.1-.12-.19-.24-.29-.35-.09-.12-.2-.23-.31-.35l-.16-.17-.08-.09-.04-.04s-.02-.02-.03-.03c-1.72-1.74-3.94-2.83-6.18-3.23l-.21-.04-.21-.03c-.14-.02-.28-.04-.42-.06-.14-.01-.28-.03-.42-.04l-.21-.02h-.21c-.14-.01-.28-.02-.42-.02-.14,0-.28,0-.41,0h-.21s-.2.02-.2.02c-.14,0-.27.02-.41.03-1.08.11-2.13.34-3.07.75-.24.09-.46.21-.69.32-.11.06-.22.13-.33.19l-.16.09c-.05.03-.1.07-.15.1-.42.27-.79.59-1.12.93-.08.09-.16.18-.24.26-.07.09-.14.19-.22.28-.03.05-.07.09-.1.14l-.09.15c-.06.1-.13.19-.18.3-.05.1-.1.2-.15.3-.03.05-.05.1-.07.16l-.13.34s-.02.04-.01.03v.04s-.04.08-.04.08c-.03.11-.07.22-.1.33-.23.88-.3,1.77-.18,2.61.13.83.45,1.6.93,2.19.48.6,1.12,1.01,1.79,1.2.34.09.68.13,1.01.13.33,0,.66-.07.97-.15.07-.02.15-.05.22-.07.07-.02.15-.06.23-.09l.12-.05s.07-.03.1-.05c.07-.03.14-.07.21-.1.26-.15.5-.31.7-.51.2-.2.35-.42.48-.64.12-.23.19-.48.24-.72.08-.48.04-.96-.07-1.37-.12-.41-.29-.77-.5-1.04-.21-.28-.45-.49-.68-.61-.23-.13-.46-.17-.64-.17-.09,0-.17,0-.24.03-.07.01-.13.03-.17.05-.09.03-.14.05-.14.05,0,0,.04-.02.13-.07.04-.03.1-.05.17-.07.07-.03.15-.04.25-.06.19-.02.44,0,.71.11.27.11.55.31.8.59.25.29.48.65.63,1.1.15.44.24.97.16,1.53-.04.28-.12.57-.25.85-.13.28-.32.54-.54.78-.23.24-.5.43-.8.61-.08.04-.15.08-.23.12-.04.02-.07.04-.12.06l-.11.05c-.08.03-.15.06-.24.09-.09.03-.17.06-.26.08-.35.1-.71.16-1.1.18-.38.01-.78-.03-1.17-.14-.78-.21-1.53-.68-2.08-1.36-.56-.67-.92-1.54-1.07-2.45-.15-.92-.08-1.89.17-2.85.03-.12.07-.24.1-.36l.03-.09v-.04s.03-.06.03-.06l.06-.17c.05-.11.08-.22.14-.34.06-.12.12-.24.17-.36.06-.12.13-.22.2-.34l.1-.17c.03-.06.08-.11.12-.16.08-.1.16-.21.24-.31.09-.1.18-.2.26-.29.37-.38.77-.74,1.22-1.03.06-.04.11-.08.17-.11l.17-.1c.12-.07.23-.14.35-.2.24-.12.49-.25.74-.35,1.01-.44,2.12-.69,3.26-.81.14,0,.29-.02.43-.03h.22s.22-.02.22-.02c.14,0,.29,0,.44,0,.15,0,.29.01.44.02h.22s.22.03.22.03c.15.01.29.03.44.04.15.02.29.04.44.06l.22.03.22.04c2.35.42,4.7,1.57,6.53,3.41.02.02.02.02.05.05l.04.04.08.09.16.17c.11.12.22.23.32.36.1.13.21.26.31.39.1.13.19.27.29.4l.14.2c.05.07.09.14.13.21.09.14.18.28.26.42.09.16.18.32.26.48.16.08.32.17.48.26.14.09.28.17.42.26.07.04.14.09.21.13l.2.14c.13.1.27.19.4.29.13.1.26.21.39.31.13.1.25.21.36.32l.18.16.09.08.04.04s.03.03.05.05c1.86,1.81,3.03,4.14,3.48,6.49l.04.22.03.22c.02.15.04.29.07.44.01.15.03.29.04.44l.02.22v.22c.02.15.02.29.03.44,0,.15,0,.29,0,.44v.22s-.01.22-.01.22c0,.14-.02.29-.02.43-.11,1.14-.35,2.25-.77,3.27-.1.26-.22.5-.34.75-.06.12-.13.24-.2.36l-.1.18c-.04.06-.07.11-.11.17-.29.46-.64.86-1.02,1.24-.1.09-.19.18-.29.27-.1.08-.21.16-.31.24-.05.04-.1.08-.16.12l-.17.1c-.11.07-.21.14-.33.2-.12.06-.24.12-.36.18-.12.06-.23.09-.34.14l-.17.06-.06.02h-.04s-.09.04-.09.04c-.12.03-.24.07-.35.1-.95.25-1.92.33-2.85.19-.92-.14-1.78-.5-2.46-1.05-.68-.55-1.17-1.29-1.38-2.07-.11-.39-.16-.78-.15-1.16.01-.38.07-.75.17-1.1.03-.09.05-.18.08-.26.03-.09.06-.16.09-.24l.04-.12c.02-.06.04-.08.06-.13.04-.08.08-.16.11-.23.17-.3.37-.57.6-.81.24-.23.5-.42.78-.55.28-.13.57-.21.85-.25.56-.08,1.09,0,1.53.15.45.15.82.38,1.1.62.29.25.49.53.6.8.12.27.13.52.11.71-.01.1-.03.18-.06.25-.02.07-.04.13-.07.17-.04.08-.07.13-.07.13,0,0,.02-.05.05-.14.02-.04.03-.1.04-.17.02-.07.02-.15.02-.24,0-.18-.05-.41-.18-.64-.13-.23-.34-.47-.62-.68-.28-.21-.64-.38-1.05-.49-.41-.11-.88-.15-1.37-.06-.24.05-.48.13-.71.25-.23.13-.44.29-.64.48-.19.2-.36.44-.5.71-.03.07-.06.14-.1.21-.01.03-.04.08-.04.1l-.04.12c-.03.08-.06.16-.08.23-.02.07-.04.15-.07.22-.08.31-.13.64-.14.97,0,.33.04.68.14,1.01.19.67.61,1.31,1.22,1.78.6.48,1.37.79,2.2.91.83.12,1.73.04,2.6-.21.11-.03.22-.07.33-.1l.08-.03h.04s.02-.02.03-.02l.34-.13c.06-.02.11-.04.16-.07.1-.05.2-.1.3-.15.1-.05.19-.12.29-.18l.15-.09s.09-.07.14-.11c.09-.07.19-.14.28-.22.09-.08.17-.16.26-.24.34-.34.66-.71.92-1.13.03-.05.07-.1.1-.16l.09-.16c.06-.11.13-.22.18-.33.11-.23.23-.45.32-.69.4-.95.62-2,.72-3.08,0-.14.01-.27.02-.41v-.2s.01-.21.01-.21c0-.14,0-.28,0-.41,0-.14-.01-.28-.02-.42v-.21s-.03-.21-.03-.21c-.01-.14-.03-.28-.04-.42-.02-.14-.04-.28-.06-.42l-.03-.21-.04-.21c-.43-2.23-1.54-4.43-3.3-6.14-.01-.01-.03-.03-.03-.03l-.04-.04-.09-.08-.18-.16c-.12-.11-.23-.22-.35-.3-.12-.09-.24-.19-.36-.28-.12-.09-.25-.18-.38-.27l-.19-.13c-.06-.04-.13-.08-.2-.12-.13-.08-.27-.16-.4-.24-.21-.11-.42-.23-.64-.34Z"/>
  <path class="cls-1" d="M29.33,30.48s.02,0,.05.01c.03,0,.08.02.15.04.12.03.32.05.55,0,.23-.04.5-.16.76-.36.26-.21.52-.51.74-.88.45-.74.8-1.8.75-2.97-.01-.29-.05-.58-.13-.87-.07-.29-.18-.57-.33-.85-.29-.54-.74-1.02-1.33-1.39-.3-.18-.63-.34-.99-.46l-.07-.02s-.03-.01,0,0h-.02s-.04-.02-.04-.02l-.15-.05s-.1-.03-.15-.05l-.13-.03-.13-.03-.14-.03c-.09-.02-.19-.04-.28-.05-.76-.11-1.55-.03-2.32.26-.77.27-1.5.76-2.14,1.38-.64.62-1.19,1.38-1.62,2.23-.43.85-.74,1.78-.88,2.75-.14.97-.13,1.98.12,2.94.24.96.7,1.88,1.38,2.63.33.38.72.71,1.13,1.01.42.29.86.54,1.35.75.25.12.49.21.73.31.12.05.24.09.37.13.12.04.25.09.37.13.5.16,1,.27,1.51.35,1.02.14,2.06.1,3.09-.07,1.03-.16,2.06-.42,3.09-.64,1.03-.22,2.06-.41,3.08-.53,1.02-.12,2.04-.17,3.03-.18.99,0,1.96.06,2.9.15.94.09,1.84.23,2.72.4.87.18,1.7.41,2.49.67.78.26,1.51.58,2.19.92.68.34,1.29.71,1.84,1.1,1.1.78,1.95,1.62,2.55,2.39.61.76.98,1.44,1.21,1.92.11.24.19.43.24.56.05.13.07.21.07.21.04.16-.05.32-.21.37-.16.04-.32-.05-.37-.21,0,0-.01-.05-.06-.17-.04-.12-.11-.29-.22-.51-.21-.44-.56-1.08-1.14-1.8-.57-.72-1.37-1.52-2.43-2.27-1.05-.75-2.37-1.42-3.88-1.93-.76-.25-1.57-.47-2.41-.63-.84-.16-1.74-.3-2.65-.37-.92-.08-1.86-.13-2.83-.13-.97,0-1.95.07-2.94.2-.99.13-2,.32-3.01.55-1.01.23-2.04.5-3.12.68-1.07.19-2.21.26-3.33.11-.56-.08-1.11-.19-1.65-.36-.14-.04-.27-.09-.4-.13-.13-.05-.27-.09-.4-.14-.26-.1-.53-.21-.77-.32l-.38-.17-.38-.19-.37-.21-.36-.23c-.48-.32-.92-.69-1.31-1.12-.39-.42-.74-.89-1.02-1.39-.29-.5-.5-1.04-.66-1.59-.32-1.1-.39-2.24-.28-3.35.11-1.11.42-2.17.86-3.16.45-.99,1.05-1.89,1.79-2.66.74-.76,1.63-1.39,2.61-1.76.98-.37,2.04-.49,3.02-.35.12.01.24.04.36.06.06.01.12.02.18.04l.19.05.18.05c.06.02.1.03.16.05l.15.05h.04s.06.03.06.03l.08.03c.44.16.86.37,1.25.61.39.25.75.55,1.06.88.31.34.56.71.74,1.11.38.79.49,1.61.46,2.35-.04.74-.22,1.41-.46,1.98-.25.57-.57,1.06-.91,1.44-.35.38-.73.67-1.1.84-.37.18-.73.22-1,.19-.28-.03-.47-.12-.58-.19-.06-.03-.1-.06-.13-.08-.03-.02-.04-.03-.04-.03Z"/>
  <path class="cls-1" d="M71.42,72.14s0-.02-.01-.05c0-.03-.03-.08-.04-.15-.03-.12-.05-.32-.01-.55.04-.23.15-.5.36-.77.2-.26.5-.52.87-.75.74-.45,1.79-.81,2.96-.78.29,0,.59.05.88.12.29.07.58.18.85.32.55.28,1.03.73,1.4,1.32.18.3.34.63.47.98l.02.07s.01.03,0,0v.02s.02.04.02.04l.05.15s.03.1.05.15l.03.13.03.13.03.14c.02.09.04.19.05.28.11.75.04,1.55-.24,2.32-.27.77-.74,1.51-1.36,2.15-.61.65-1.37,1.21-2.21,1.64-.84.44-1.77.76-2.74.91-.97.15-1.98.15-2.94-.09-.97-.23-1.88-.68-2.64-1.35-.38-.33-.72-.71-1.02-1.12-.3-.42-.55-.86-.77-1.34-.12-.25-.22-.48-.32-.72-.05-.12-.09-.24-.14-.37-.04-.12-.09-.24-.13-.37-.16-.5-.28-1-.36-1.51-.15-1.02-.12-2.06.04-3.09.15-1.03.4-2.06.61-3.09.21-1.03.39-2.06.5-3.09.11-1.02.15-2.04.14-3.03-.01-.99-.08-1.96-.18-2.89-.09-.94-.25-1.83-.43-2.71-.19-.87-.43-1.7-.7-2.48-.27-.78-.6-1.51-.94-2.18-.35-.67-.72-1.29-1.12-1.83-.79-1.1-1.64-1.93-2.42-2.53-.77-.6-1.45-.97-1.93-1.19-.24-.11-.43-.18-.56-.23-.13-.05-.21-.07-.21-.07-.16-.04-.32.05-.37.21-.04.16.05.32.21.37,0,0,.05.01.17.06.12.04.29.11.51.21.44.2,1.08.55,1.81,1.12.73.56,1.54,1.36,2.29,2.41.76,1.04,1.44,2.35,1.97,3.86.26.76.48,1.56.66,2.41.17.84.32,1.73.4,2.65.09.92.15,1.86.16,2.83,0,.97-.05,1.95-.17,2.95-.12,1-.3,2-.52,3.02-.22,1.02-.48,2.05-.65,3.13-.18,1.07-.23,2.21-.08,3.33.08.56.21,1.11.37,1.65.04.14.09.27.13.4.05.13.09.27.14.4.11.26.21.53.33.77l.17.38.19.38.21.37.23.36c.32.47.7.91,1.13,1.3.43.39.9.73,1.4,1.01.5.28,1.04.49,1.59.64,1.1.31,2.25.37,3.35.24,1.11-.12,2.17-.44,3.15-.9.98-.46,1.88-1.07,2.64-1.82.75-.75,1.37-1.64,1.74-2.62.36-.98.47-2.05.32-3.03-.01-.12-.04-.24-.06-.36-.01-.06-.02-.12-.04-.18l-.05-.18-.05-.18c-.02-.06-.03-.1-.05-.16l-.05-.15v-.04s-.03-.06-.03-.06l-.03-.08c-.17-.44-.37-.86-.63-1.25-.25-.39-.56-.74-.89-1.05-.34-.3-.72-.55-1.11-.73-.79-.37-1.62-.48-2.35-.43-.74.04-1.4.23-1.98.48-.57.26-1.05.58-1.43.93-.38.35-.66.74-.83,1.11-.17.37-.21.73-.18,1.01.03.28.13.46.19.58.03.06.07.1.08.13.02.03.03.04.03.04Z"/>
  <path class="cls-1" d="M57.76,43.85s-.06-.04-.08-.08c-.02-.07.01-.14.08-.17h0s.06-.02.16-.06c.07-.02.14-.06.23-.1-.04.09-.08.16-.1.23-.04.11-.06.17-.06.17h0c-.02.07-.1.11-.16.08-.04-.01-.07-.04-.08-.07Z"/>
  <path class="cls-1" d="M56.55,44.61s-.04-.02-.06-.03c-.13-.09-.17-.28-.07-.41.04-.06,2.47-4.2-11.17-14.31-.13-.1-.16-.29-.06-.42.1-.13.29-.16.42-.06,14.26,10.56,11.43,14.94,11.3,15.13-.08.12-.23.16-.36.1Z"/>
  <path class="cls-1" d="M57.01,45.07s.02.04.03.06c.1.13.28.16.41.07.06-.04,4.17-2.52,14.42,11.02.1.13.29.16.42.06s.16-.29.06-.42c-10.71-14.15-15.06-11.28-15.24-11.15-.12.08-.15.23-.1.36Z"/>
  <path class="cls-1" d="M56.58,45.04s-.06-.08-.08-.13c-.07-.23-1.49-5.49,12.17-12.09-6.46,13.72-11.74,12.36-11.97,12.29-.05-.01-.09-.04-.13-.07ZM67.36,34.15c-10.26,5.34-10.41,9.54-10.31,10.42.89.09,5.07-.1,10.31-10.42Z"/>
  <path class="cls-1" d="M56.8,43.53c-.12-.05-.2-.18-.18-.32.02-.1,1.58-9.96-.92-14.76-.08-.15-.02-.33.13-.4s.33-.02.4.13c2.59,4.97,1.05,14.72.98,15.13-.03.16-.18.27-.34.25-.02,0-.05-.01-.07-.02Z"/>
  <path class="cls-1" d="M58.09,44.8c.05.12.19.2.33.18.1-.02,9.95-1.68,14.77.77.15.07.33.02.4-.13.07-.15.02-.33-.13-.4-5-2.54-14.73-.89-15.14-.82-.16.03-.27.18-.24.35,0,.02.01.05.02.07Z"/>
  <path class="cls-1" d="M44.89,46.49c-.39.94-1.47,1.38-2.41.98-.94-.39-1.38-1.47-.98-2.41.39-.94,1.47-1.38,2.41-.98s1.38,1.47.98,2.41Z"/>
  <path class="cls-1" d="M55.24,56.74c-.93.4-1.36,1.49-.96,2.42.4.93,1.49,1.36,2.42.96s1.36-1.49.96-2.42c-.4-.93-1.49-1.36-2.42-.96Z"/>
  <path class="cls-1" d="M32,29.69c-.39.94-1.47,1.38-2.41.98-.94-.39-1.38-1.47-.98-2.41.39-.94,1.47-1.38,2.41-.98.94.39,1.38,1.47.98,2.41Z"/>
  <path class="cls-1" d="M72.18,69.46c-.93.4-1.36,1.49-.96,2.42.4.93,1.49,1.36,2.42.96.93-.4,1.36-1.49.96-2.42-.4-.93-1.49-1.36-2.42-.96Z"/>
  <path class="cls-1" d="M16.3,29.73c-.39.94-1.47,1.38-2.41.98-.94-.39-1.38-1.47-.98-2.41.39-.94,1.47-1.38,2.41-.98.94.39,1.38,1.47.98,2.41Z"/>
  <path class="cls-1" d="M72.29,85.15c-.93.4-1.36,1.49-.96,2.42.4.93,1.49,1.36,2.42.96.93-.4,1.36-1.49.96-2.42-.4-.93-1.49-1.36-2.42-.96Z"/>
  <path class="cls-1" d="M26.06,32.3c.19.8-.31,1.61-1.11,1.79-.8.19-1.61-.31-1.79-1.11-.19-.8.31-1.61,1.11-1.79.8-.19,1.61.31,1.79,1.11Z"/>
  <path class="cls-1" d="M69.63,75.42c-.8-.18-1.6.32-1.78,1.13-.18.8.32,1.6,1.13,1.78.8.18,1.6-.32,1.78-1.13.18-.8-.32-1.6-1.13-1.78Z"/>
  <path class="cls-1" d="M29.41,34.59c.16.67-.26,1.35-.93,1.51-.67.16-1.35-.26-1.51-.93-.16-.67.26-1.35.93-1.51.67-.16,1.35.26,1.51.93Z"/>
  <path class="cls-1" d="M67.31,72.09c-.68-.15-1.35.27-1.5.95-.15.67.27,1.35.95,1.5.68.15,1.35-.27,1.5-.95.15-.68-.27-1.35-.95-1.5Z"/>
  <path class="cls-1" d="M32.81,34.91c.14.6-.23,1.19-.83,1.33-.6.14-1.19-.23-1.34-.83-.14-.6.23-1.19.83-1.33.6-.14,1.19.23,1.33.83Z"/>
  <path class="cls-1" d="M66.95,68.7c-.6-.13-1.19.24-1.33.84-.13.6.24,1.19.84,1.33.6.13,1.19-.24,1.33-.84.13-.6-.24-1.19-.84-1.33Z"/>
  <path class="cls-1" d="M36.32,34.58c.13.54-.21,1.09-.75,1.22-.54.13-1.09-.21-1.22-.75-.13-.55.21-1.09.75-1.22.54-.13,1.09.21,1.22.75Z"/>
  <path class="cls-1" d="M67.24,65.19c-.55-.12-1.09.22-1.21.77-.12.55.22,1.09.77,1.21.55.12,1.09-.22,1.21-.77.12-.55-.22-1.09-.77-1.21Z"/>
  <path class="cls-1" d="M39.59,34.25c.11.47-.18.94-.65,1.05-.47.11-.94-.18-1.05-.65-.11-.47.18-.94.65-1.05.47-.11.94.18,1.05.65Z"/>
  <path class="cls-1" d="M67.54,61.91c-.47-.11-.93.19-1.04.66-.11.47.19.93.66,1.04.47.11.94-.19,1.04-.66.11-.47-.19-.94-.66-1.04Z"/>
  <path class="cls-1" d="M42.54,34.26c.1.44-.17.89-.61.99-.44.1-.89-.17-.99-.61-.1-.44.17-.89.61-.99.44-.1.89.17.99.61Z"/>
  <path class="cls-1" d="M67.5,58.96c-.44-.1-.88.18-.98.62-.1.44.18.88.62.98.44.1.88-.18.98-.62.1-.44-.18-.88-.62-.98Z"/>
  <path class="cls-1" d="M45.28,34.76c.09.38-.14.76-.52.85-.38.09-.76-.15-.85-.52-.09-.38.15-.76.52-.85.38-.09.76.15.85.52Z"/>
  <path class="cls-1" d="M66.98,56.22c-.38-.09-.76.15-.84.53-.09.38.15.76.53.84.38.09.76-.15.84-.53.09-.38-.15-.76-.53-.84Z"/>
  <path class="cls-1" d="M47.69,35.16c.08.33-.13.65-.45.73-.33.08-.65-.13-.73-.45-.08-.33.13-.65.45-.73.33-.08.65.13.73.45Z"/>
  <path class="cls-1" d="M66.54,53.82c-.33-.07-.65.13-.73.46-.07.33.13.65.46.73.33.07.65-.13.73-.46.07-.33-.13-.65-.46-.73Z"/>
  <path class="cls-1" d="M49.78,36.09c.07.29-.11.58-.4.65-.29.07-.58-.11-.65-.4-.07-.29.11-.58.4-.65.29-.07.58.11.65.4Z"/>
  <path class="cls-1" d="M65.6,51.74c-.29-.06-.58.12-.64.41-.07.29.12.58.41.64.29.06.58-.12.64-.41.07-.29-.12-.58-.41-.64Z"/>
  <path class="cls-1" d="M51.63,37.03c.05.23-.09.46-.32.52-.23.05-.46-.09-.52-.32-.05-.23.09-.46.32-.52.23-.05.46.09.52.32Z"/>
  <path class="cls-1" d="M64.63,49.9c-.23-.05-.46.09-.51.32-.05.23.09.46.32.51.23.05.46-.09.51-.32.05-.23-.09-.46-.32-.51Z"/>
  <path class="cls-1" d="M53.23,38.23c.05.2-.08.4-.28.45s-.4-.08-.45-.28c-.05-.2.08-.4.28-.45.2-.05.4.08.45.28Z"/>
  <path class="cls-1" d="M63.41,48.32c-.2-.05-.4.08-.45.28-.05.2.08.4.28.45.2.05.4-.08.45-.28.05-.2-.08-.4-.28-.45Z"/>
  <path class="cls-1" d="M54.47,39.29c.04.16-.06.33-.23.37-.16.04-.33-.06-.37-.23-.04-.16.06-.33.23-.37.16-.04.33.06.36.23Z"/>
  <path class="cls-1" d="M62.35,47.08c-.16-.04-.33.07-.36.23-.04.16.07.33.23.36.16.04.33-.07.36-.23.04-.16-.07-.33-.23-.36Z"/>
  <path class="cls-1" d="M55.34,40.37c.03.12-.04.24-.16.26-.12.03-.24-.05-.26-.16-.03-.12.05-.24.16-.26.12-.03.24.04.26.16Z"/>
  <path class="cls-1" d="M61.26,46.23c-.12-.03-.24.05-.26.17-.03.12.05.24.17.26.12.03.24-.05.26-.17.03-.12-.05-.24-.17-.26Z"/>
  <path class="cls-1" d="M55.96,41.37c.02.09-.03.17-.12.19-.09.02-.17-.03-.19-.12-.02-.09.03-.17.12-.19.09-.02.17.03.19.12Z"/>
  <path class="cls-1" d="M60.26,45.61c-.09-.02-.17.03-.19.12-.02.09.03.17.12.19.09.02.17-.04.19-.12.02-.09-.03-.17-.12-.19Z"/>
</svg>